<svg width="21" height="21" viewBox="0 0 21 21" fill="none" xmlns="http://www.w3.org/2000/svg">
<path d="M9.84394 20.2645C7.58929 18.8748 5.4961 17.2388 3.60294 15.3865C2.20391 13.9914 1.1443 12.2933 0.505938 10.4235C-0.170018 8.3912 -0.0316547 6.17595 0.891938 4.24353C1.27764 3.45589 1.81954 2.75495 2.48467 2.18334C3.1498 1.61173 3.92426 1.1814 4.76094 0.918525C5.71635 0.618061 6.7261 0.53111 7.71882 0.663818C8.71154 0.796526 9.66299 1.14565 10.5059 1.68653C11.3487 1.14567 12.3 0.796553 13.2925 0.663844C14.2851 0.531135 15.2947 0.618077 16.2499 0.918525C17.0867 1.18127 17.8612 1.61143 18.5265 2.18286C19.1918 2.75429 19.7339 3.45504 20.1199 4.24253C21.0438 6.18656 21.1691 8.4152 20.4689 10.4505C19.829 12.3173 18.7738 14.0146 17.3829 15.4145C16.4745 16.3479 15.4941 17.2086 14.4509 17.9885L14.3959 18.0355C14.3137 18.091 14.2212 18.1296 14.124 18.1493C14.0267 18.1689 13.9265 18.1692 13.8292 18.1501C13.7318 18.1309 13.6392 18.0928 13.5566 18.0378C13.474 17.9828 13.4031 17.912 13.3479 17.8295C13.2885 17.746 13.2462 17.6517 13.2234 17.5518C13.2006 17.4519 13.1977 17.3485 13.2149 17.2475C13.2321 17.1474 13.2689 17.0516 13.3233 16.9658C13.3777 16.8799 13.4486 16.8057 13.5319 16.7475C14.5087 16.0082 15.4283 15.1962 16.2829 14.3185C17.5224 13.0966 18.4658 11.6073 19.0409 9.96453C19.5968 8.32137 19.4844 6.52553 18.7279 4.96453C18.4307 4.36169 18.0145 3.82526 17.5044 3.38754C16.9943 2.94981 16.4009 2.61985 15.7599 2.41753C14.9496 2.15986 14.0888 2.10277 13.2514 2.25118C12.4141 2.39958 11.6254 2.74904 10.9529 3.26953C10.8208 3.37001 10.6594 3.42442 10.4934 3.42442C10.3275 3.42442 10.166 3.37001 10.0339 3.26953C9.3618 2.74842 8.57303 2.39858 7.73561 2.25016C6.89818 2.10173 6.03722 2.15917 5.22694 2.41753C4.58091 2.61502 3.98182 2.94187 3.46608 3.37818C2.95034 3.8145 2.52875 4.35116 2.22694 4.95553C1.48795 6.51558 1.38256 8.30138 1.93294 9.93752C2.51076 11.576 3.45391 13.0615 4.69094 14.2815C6.50906 16.0589 8.51868 17.6291 10.6829 18.9635C10.8177 19.0596 10.9191 19.1954 10.9728 19.3519C11.0266 19.5085 11.0302 19.6779 10.9829 19.8365C10.9374 19.9943 10.843 20.1336 10.7132 20.2342C10.5835 20.3349 10.4251 20.3917 10.2609 20.3965C10.1118 20.3959 9.96632 20.3498 9.84394 20.2645ZM15.4959 8.09153C15.4797 7.67244 15.3356 7.26836 15.083 6.93356C14.8304 6.59875 14.4814 6.34923 14.0829 6.21852C13.936 6.12348 13.8245 5.98253 13.7659 5.8176C13.7073 5.65267 13.7049 5.473 13.7589 5.30653C13.811 5.14044 13.9177 4.99683 14.0616 4.89899C14.2056 4.80115 14.3784 4.75482 14.5519 4.76753C15.2265 4.98947 15.8206 5.40532 16.2601 5.96308C16.6996 6.52085 16.9649 7.19579 17.0229 7.90353C17.0485 8.107 16.9932 8.31238 16.8689 8.47553C16.808 8.55539 16.7316 8.6222 16.6443 8.67202C16.5571 8.72183 16.4607 8.75363 16.3609 8.76552C16.3278 8.77004 16.2944 8.77238 16.2609 8.77252C16.0725 8.77106 15.8911 8.70118 15.7504 8.57591C15.6096 8.45063 15.5192 8.27849 15.4959 8.09153Z" fill="#40AA54"/>
</svg>
