<svg width="21" height="21" viewBox="0 0 21 21" fill="none" xmlns="http://www.w3.org/2000/svg">
<path d="M9.84394 20.265C7.58929 18.8753 5.4961 17.2392 3.60294 15.387C2.20391 13.9919 1.1443 12.2938 0.505938 10.424C-0.170018 8.39169 -0.0316547 6.17643 0.891938 4.24401C1.27764 3.45638 1.81954 2.75543 2.48467 2.18382C3.1498 1.61221 3.92426 1.18189 4.76094 0.919013C5.71635 0.618549 6.7261 0.531599 7.71882 0.664306C8.71154 0.797014 9.66299 1.14614 10.5059 1.68701C11.3487 1.14616 12.3 0.797041 13.2925 0.664332C14.2851 0.531623 15.2947 0.618565 16.2499 0.919013C17.0867 1.18176 17.8612 1.61192 18.5265 2.18335C19.1918 2.75477 19.7339 3.45553 20.1199 4.24301C21.0438 6.18705 21.1691 8.41569 20.4689 10.451C19.829 12.3178 18.7738 14.015 17.3829 15.415C16.4745 16.3484 15.4941 17.209 14.4509 17.989L14.3959 18.036C14.3137 18.0915 14.2212 18.1301 14.124 18.1498C14.0267 18.1694 13.9265 18.1697 13.8292 18.1506C13.7318 18.1314 13.6392 18.0933 13.5566 18.0383C13.474 17.9832 13.4031 17.9125 13.3479 17.83C13.2885 17.7465 13.2462 17.6522 13.2234 17.5523C13.2006 17.4524 13.1977 17.349 13.2149 17.248C13.2321 17.1478 13.2689 17.0521 13.3233 16.9662C13.3777 16.8804 13.4486 16.8062 13.5319 16.748C14.5087 16.0087 15.4283 15.1967 16.2829 14.319C17.5224 13.0971 18.4658 11.6078 19.0409 9.96501C19.5968 8.32185 19.4844 6.52602 18.7279 4.96501C18.4307 4.36218 18.0145 3.82575 17.5044 3.38802C16.9943 2.9503 16.4009 2.62034 15.7599 2.41801C14.9496 2.16035 14.0888 2.10326 13.2514 2.25167C12.4141 2.40007 11.6254 2.74953 10.9529 3.27001C10.8208 3.3705 10.6594 3.42491 10.4934 3.42491C10.3275 3.42491 10.166 3.3705 10.0339 3.27001C9.3618 2.74891 8.57303 2.39907 7.73561 2.25065C6.89818 2.10222 6.03722 2.15966 5.22694 2.41801C4.58091 2.61551 3.98182 2.94236 3.46608 3.37867C2.95034 3.81498 2.52875 4.35164 2.22694 4.95601C1.48795 6.51607 1.38256 8.30187 1.93294 9.93801C2.51076 11.5765 3.45391 13.062 4.69094 14.282C6.50906 16.0594 8.51868 17.6296 10.6829 18.964C10.8177 19.0601 10.9191 19.1959 10.9728 19.3524C11.0266 19.509 11.0302 19.6784 10.9829 19.837C10.9374 19.9948 10.843 20.1341 10.7132 20.2347C10.5835 20.3354 10.4251 20.3922 10.2609 20.397C10.1118 20.3963 9.96632 20.3503 9.84394 20.265ZM15.4959 8.09201C15.4797 7.67293 15.3356 7.26885 15.083 6.93404C14.8304 6.59923 14.4814 6.34972 14.0829 6.21901C13.936 6.12397 13.8245 5.98302 13.7659 5.81809C13.7073 5.65315 13.7049 5.47348 13.7589 5.30701C13.811 5.14093 13.9177 4.99732 14.0616 4.89948C14.2056 4.80164 14.3784 4.75531 14.5519 4.76801C15.2265 4.98996 15.8206 5.40581 16.2601 5.96357C16.6996 6.52134 16.9649 7.19628 17.0229 7.90401C17.0485 8.10749 16.9932 8.31287 16.8689 8.47601C16.808 8.55588 16.7316 8.62269 16.6443 8.67251C16.5571 8.72232 16.4607 8.75412 16.3609 8.76601C16.3278 8.77053 16.2944 8.77287 16.2609 8.77301C16.0725 8.77155 15.8911 8.70167 15.7504 8.5764C15.6096 8.45112 15.5192 8.27898 15.4959 8.09201Z" fill="#777777"/>
</svg>
