<svg width="20" height="20" viewBox="0 0 20 20" fill="none" xmlns="http://www.w3.org/2000/svg">
<path d="M8.422 18.261H4.422C3.79908 18.2589 3.20215 18.0112 2.76083 17.5715C2.31952 17.1319 2.06947 16.5359 2.065 15.913V7.95703C2.06681 7.74228 2.11564 7.53054 2.20807 7.3367C2.3005 7.14285 2.43428 6.97162 2.6 6.83503L3.3 6.31303C3.42224 6.18011 3.49478 6.00901 3.50533 5.82873C3.51588 5.64845 3.46379 5.47007 3.35788 5.3238C3.25197 5.17753 3.09876 5.07236 2.92419 5.02611C2.74962 4.97986 2.56444 4.99538 2.4 5.07003L1.674 5.60903C1.31456 5.88712 1.02237 6.24261 0.819124 6.64909C0.615882 7.05558 0.506808 7.50262 0.5 7.95703L0.5 15.922C0.502114 16.9616 0.916002 17.9579 1.65106 18.693C2.38612 19.428 3.38247 19.8419 4.422 19.844H8.422C8.52711 19.8478 8.63191 19.8303 8.73012 19.7927C8.82834 19.7551 8.91797 19.698 8.99366 19.625C9.06935 19.552 9.12955 19.4644 9.17067 19.3676C9.21179 19.2708 9.23298 19.1667 9.23298 19.0615C9.23298 18.9563 9.21179 18.8522 9.17067 18.7554C9.12955 18.6586 9.06935 18.5711 8.99366 18.4981C8.91797 18.425 8.82834 18.368 8.73012 18.3304C8.63191 18.2927 8.52711 18.2753 8.422 18.279V18.261Z" fill="#777777"/>
<path d="M19.2911 7.93942C19.2866 7.48819 19.1822 7.04356 18.9852 6.63755C18.7883 6.23154 18.5037 5.87425 18.1521 5.59142L12.1431 0.804424C11.5022 0.289484 10.7047 0.00878906 9.88259 0.00878906C9.06047 0.00878906 8.26298 0.289484 7.62209 0.804424L5.71709 2.18342C5.55508 2.31063 5.44837 2.49544 5.4192 2.69935C5.39003 2.90327 5.44064 3.11058 5.56049 3.27811C5.68034 3.44565 5.8602 3.5605 6.06261 3.59874C6.26502 3.63698 6.47438 3.59568 6.64709 3.48342L8.57709 2.04042C8.94449 1.73785 9.40564 1.5724 9.88159 1.5724C10.3575 1.5724 10.8187 1.73785 11.1861 2.04042L17.1951 6.83142C17.3659 6.96673 17.5045 7.1383 17.6008 7.33373C17.6971 7.52916 17.7488 7.74357 17.7521 7.96142V15.9264C17.7521 16.5492 17.5047 17.1464 17.0644 17.5867C16.624 18.027 16.0268 18.2744 15.4041 18.2744H13.6221C13.5346 18.2744 13.4506 18.2397 13.3887 18.1778C13.3269 18.1159 13.2921 18.0319 13.2921 17.9444V14.3484C13.2921 13.7987 13.0743 13.2713 12.6863 12.8819C12.2983 12.4924 11.7718 12.2725 11.2221 12.2704H8.61309C8.06197 12.2704 7.53343 12.4894 7.14373 12.8791C6.75403 13.2688 6.53509 13.7973 6.53509 14.3484V15.7224C6.53134 15.8275 6.54879 15.9323 6.58643 16.0305C6.62406 16.1288 6.68109 16.2184 6.75413 16.2941C6.82716 16.3698 6.91469 16.43 7.0115 16.4711C7.10831 16.5122 7.21241 16.5334 7.31759 16.5334C7.42277 16.5334 7.52688 16.5122 7.62369 16.4711C7.7205 16.43 7.80803 16.3698 7.88106 16.2941C7.9541 16.2184 8.01113 16.1288 8.04876 16.0305C8.0864 15.9323 8.10385 15.8275 8.10009 15.7224V14.3484C8.09836 14.2817 8.11001 14.2153 8.13436 14.1531C8.15871 14.0909 8.19526 14.0343 8.24186 13.9864C8.28847 13.9386 8.34418 13.9006 8.4057 13.8747C8.46723 13.8488 8.53333 13.8354 8.60009 13.8354H11.2131C11.3457 13.8354 11.4729 13.8881 11.5666 13.9819C11.6604 14.0756 11.7131 14.2028 11.7131 14.3354V17.9354C11.7131 18.4393 11.9133 18.9226 12.2696 19.2789C12.6259 19.6352 13.1092 19.8354 13.6131 19.8354H15.3611C15.8763 19.8357 16.3865 19.7344 16.8626 19.5375C17.3387 19.3405 17.7713 19.0516 18.1357 18.6874C18.5001 18.3232 18.7891 17.8907 18.9864 17.4148C19.1836 16.9388 19.2851 16.4286 19.2851 15.9134L19.2911 7.93942Z" fill="#777777"/>
</svg>
