<svg width="24" height="20" viewBox="0 0 24 20" fill="none" xmlns="http://www.w3.org/2000/svg">
<path d="M4.592 0V20H0V0H4.592ZM16.052 0C16.052 4.194 14.469 8.105 11.637 11.068L11.359 11.351L17.702 20H12.034L5.141 10.6L6.92 9.268C9.778 7.128 11.455 3.89 11.557 0.344L11.562 0H16.052ZM21.5 15C22.163 15 22.7989 15.2634 23.2678 15.7322C23.7366 16.2011 24 16.837 24 17.5C24 18.163 23.7366 18.7989 23.2678 19.2678C22.7989 19.7366 22.163 20 21.5 20C20.837 20 20.2011 19.7366 19.7322 19.2678C19.2634 18.7989 19 18.163 19 17.5C19 16.837 19.2634 16.2011 19.7322 15.7322C20.2011 15.2634 20.837 15 21.5 15Z" fill="black"/>
</svg>
