<svg width="11" height="15" viewBox="0 0 11 15" fill="none" xmlns="http://www.w3.org/2000/svg">
<path d="M5.11669 0C2.2952 0 -0.000244141 2.29544 -0.000244141 5.11691C-0.000244141 8.61844 4.57891 13.7589 4.77387 13.976C4.957 14.18 5.27672 14.1796 5.4595 13.976C5.65447 13.7589 10.2336 8.61844 10.2336 5.11691C10.2336 2.29544 7.93816 0 5.11669 0ZM5.11669 12.9624C3.57557 11.1317 0.921219 7.52008 0.921219 5.11696C0.921219 2.80353 2.80328 0.921467 5.11669 0.921467C7.4301 0.921467 9.31216 2.80353 9.31216 5.11694C9.31213 7.52017 6.6582 11.1312 5.11669 12.9624Z" fill="#2C3066"/>
<path d="M5.11665 2.54248C3.6971 2.54248 2.54224 3.69737 2.54224 5.11694C2.54224 6.5365 3.69713 7.69141 5.11665 7.69141C6.53619 7.69141 7.69107 6.5365 7.69107 5.11694C7.69107 3.69737 6.53619 2.54248 5.11665 2.54248ZM5.11665 6.76993C4.20518 6.76993 3.4637 6.02841 3.4637 5.11694C3.4637 4.20547 4.20522 3.46394 5.11665 3.46394C6.02811 3.46394 6.76964 4.20547 6.76964 5.11694C6.76964 6.02841 6.02811 6.76993 5.11665 6.76993Z" fill="#2C3066"/>
</svg>
