<svg width="76" height="76" viewBox="0 0 76 76" fill="none" xmlns="http://www.w3.org/2000/svg">
<circle cx="38" cy="38" r="38" fill="#40AA54"/>
<path d="M26.75 31H43.625V27.2857C43.625 25.7381 43.0781 24.4226 41.9844 23.3393C40.8906 22.256 39.5625 21.7143 38 21.7143C36.4375 21.7143 35.1094 22.256 34.0156 23.3393C32.9219 24.4226 32.375 25.7381 32.375 27.2857H28.625C28.625 24.7167 29.5394 22.5265 31.3681 20.7151C33.1956 18.905 35.4063 18 38 18C40.5937 18 42.805 18.905 44.6338 20.7151C46.4613 22.5265 47.375 24.7167 47.375 27.2857V31H49.25C50.2813 31 51.1644 31.3634 51.8994 32.0901C52.6331 32.8181 53 33.6929 53 34.7143V53.2857C53 54.3071 52.6331 55.1819 51.8994 55.9099C51.1644 56.6366 50.2813 57 49.25 57H26.75C25.7187 57 24.8362 56.6366 24.1025 55.9099C23.3675 55.1819 23 54.3071 23 53.2857V34.7143C23 33.6929 23.3675 32.8181 24.1025 32.0901C24.8362 31.3634 25.7187 31 26.75 31ZM38 47.7143C39.0313 47.7143 39.9144 47.3509 40.6494 46.6241C41.3831 45.8961 41.75 45.0214 41.75 44C41.75 42.9786 41.3831 42.1039 40.6494 41.3759C39.9144 40.6491 39.0313 40.2857 38 40.2857C36.9687 40.2857 36.0863 40.6491 35.3525 41.3759C34.6175 42.1039 34.25 42.9786 34.25 44C34.25 45.0214 34.6175 45.8961 35.3525 46.6241C36.0863 47.3509 36.9687 47.7143 38 47.7143Z" fill="white"/>
</svg>
