<svg width="219" height="153" viewBox="0 0 219 153" fill="none" xmlns="http://www.w3.org/2000/svg">
<path d="M17.2245 103.76C7.98445 103.76 1.51645 110.272 1.51645 119.512C1.51645 128.752 8.02845 135.22 17.2685 135.22C25.4085 135.22 30.5565 129.896 32.1405 124.572V117.576H15.7725V123.12H25.3205C24.1765 126.596 21.5805 128.576 17.8405 128.576C12.4285 128.576 9.17245 125.232 9.17245 119.512C9.17245 114.144 12.3845 110.712 17.2245 110.712C20.0405 110.712 22.1525 111.812 23.2965 113.88H31.6125C29.9845 107.544 24.6165 103.76 17.2245 103.76ZM43.8321 123.604C43.8321 119.38 45.9001 118.148 49.4641 118.148H51.5321V110.184C48.2321 110.184 45.5481 111.944 43.8321 114.54V110.448H36.3081V135H43.8321V123.604ZM79.1524 122.724C79.1524 114.936 73.6084 110.096 66.3924 110.096C59.2204 110.096 53.6324 114.936 53.6324 122.724C53.6324 130.512 59.0884 135.352 66.3044 135.352C73.5204 135.352 79.1524 130.512 79.1524 122.724ZM61.2884 122.724C61.2884 118.544 63.6644 116.608 66.3924 116.608C69.0324 116.608 71.4964 118.544 71.4964 122.724C71.4964 126.86 68.9884 128.84 66.3044 128.84C63.5764 128.84 61.2884 126.86 61.2884 122.724ZM103.076 127.872C102.944 118.72 89.656 121.492 89.656 117.576C89.656 116.388 90.624 115.684 92.384 115.684C94.496 115.684 95.772 116.784 95.992 118.456H102.944C102.46 113.616 98.94 110.096 92.604 110.096C86.18 110.096 82.616 113.528 82.616 117.708C82.616 126.728 95.992 123.868 95.992 127.828C95.992 128.928 94.98 129.808 93.044 129.808C90.976 129.808 89.436 128.664 89.26 126.948H81.824C82.176 131.7 86.576 135.352 93.132 135.352C99.292 135.352 103.076 132.14 103.076 127.872ZM118.327 135.308C116.274 135.308 114.426 134.956 112.783 134.252C111.141 133.519 109.85 132.492 108.911 131.172C107.973 129.852 107.503 128.312 107.503 126.552H112.871C112.989 127.872 113.502 128.957 114.411 129.808C115.35 130.659 116.655 131.084 118.327 131.084C120.058 131.084 121.407 130.673 122.375 129.852C123.343 129.001 123.827 127.916 123.827 126.596C123.827 125.569 123.519 124.733 122.903 124.088C122.317 123.443 121.569 122.944 120.659 122.592C119.779 122.24 118.547 121.859 116.963 121.448C114.969 120.92 113.341 120.392 112.079 119.864C110.847 119.307 109.791 118.456 108.911 117.312C108.031 116.168 107.591 114.643 107.591 112.736C107.591 110.976 108.031 109.436 108.911 108.116C109.791 106.796 111.023 105.784 112.607 105.08C114.191 104.376 116.025 104.024 118.107 104.024C121.07 104.024 123.49 104.772 125.367 106.268C127.274 107.735 128.33 109.759 128.535 112.34H122.991C122.903 111.225 122.375 110.272 121.407 109.48C120.439 108.688 119.163 108.292 117.579 108.292C116.142 108.292 114.969 108.659 114.059 109.392C113.15 110.125 112.695 111.181 112.695 112.56C112.695 113.499 112.974 114.276 113.531 114.892C114.118 115.479 114.851 115.948 115.731 116.3C116.611 116.652 117.814 117.033 119.339 117.444C121.363 118.001 123.006 118.559 124.267 119.116C125.558 119.673 126.643 120.539 127.523 121.712C128.433 122.856 128.887 124.396 128.887 126.332C128.887 127.887 128.462 129.353 127.611 130.732C126.79 132.111 125.573 133.225 123.959 134.076C122.375 134.897 120.498 135.308 118.327 135.308ZM147.346 110.36C149.194 110.36 150.837 110.756 152.274 111.548C153.741 112.34 154.885 113.513 155.706 115.068C156.557 116.623 156.982 118.5 156.982 120.7V135H152.01V121.448C152.01 119.277 151.467 117.62 150.382 116.476C149.297 115.303 147.815 114.716 145.938 114.716C144.061 114.716 142.565 115.303 141.45 116.476C140.365 117.62 139.822 119.277 139.822 121.448V135H134.806V102.44H139.822V113.572C140.673 112.545 141.743 111.753 143.034 111.196C144.354 110.639 145.791 110.36 147.346 110.36ZM173.896 135.396C171.608 135.396 169.54 134.883 167.692 133.856C165.844 132.8 164.392 131.333 163.336 129.456C162.28 127.549 161.752 125.349 161.752 122.856C161.752 120.392 162.295 118.207 163.38 116.3C164.465 114.393 165.947 112.927 167.824 111.9C169.701 110.873 171.799 110.36 174.116 110.36C176.433 110.36 178.531 110.873 180.408 111.9C182.285 112.927 183.767 114.393 184.852 116.3C185.937 118.207 186.48 120.392 186.48 122.856C186.48 125.32 185.923 127.505 184.808 129.412C183.693 131.319 182.168 132.8 180.232 133.856C178.325 134.883 176.213 135.396 173.896 135.396ZM173.896 131.04C175.187 131.04 176.389 130.732 177.504 130.116C178.648 129.5 179.572 128.576 180.276 127.344C180.98 126.112 181.332 124.616 181.332 122.856C181.332 121.096 180.995 119.615 180.32 118.412C179.645 117.18 178.751 116.256 177.636 115.64C176.521 115.024 175.319 114.716 174.028 114.716C172.737 114.716 171.535 115.024 170.42 115.64C169.335 116.256 168.469 117.18 167.824 118.412C167.179 119.615 166.856 121.096 166.856 122.856C166.856 125.467 167.516 127.491 168.836 128.928C170.185 130.336 171.872 131.04 173.896 131.04ZM196.455 114.32C197.305 113.205 198.464 112.267 199.931 111.504C201.397 110.741 203.055 110.36 204.903 110.36C207.015 110.36 208.936 110.888 210.667 111.944C212.427 112.971 213.805 114.423 214.803 116.3C215.8 118.177 216.299 120.333 216.299 122.768C216.299 125.203 215.8 127.388 214.803 129.324C213.805 131.231 212.427 132.727 210.667 133.812C208.936 134.868 207.015 135.396 204.903 135.396C203.055 135.396 201.412 135.029 199.975 134.296C198.537 133.533 197.364 132.595 196.455 131.48V146.528H191.439V110.756H196.455V114.32ZM211.195 122.768C211.195 121.096 210.843 119.659 210.139 118.456C209.464 117.224 208.555 116.3 207.411 115.684C206.296 115.039 205.093 114.716 203.803 114.716C202.541 114.716 201.339 115.039 200.195 115.684C199.08 116.329 198.171 117.268 197.467 118.5C196.792 119.732 196.455 121.184 196.455 122.856C196.455 124.528 196.792 125.995 197.467 127.256C198.171 128.488 199.08 129.427 200.195 130.072C201.339 130.717 202.541 131.04 203.803 131.04C205.093 131.04 206.296 130.717 207.411 130.072C208.555 129.397 209.464 128.429 210.139 127.168C210.843 125.907 211.195 124.44 211.195 122.768Z" fill="#2C3066"/>
<path d="M109.231 21.1317C110.672 21.2555 112.053 21.7649 113.23 22.6066C114.274 21.8517 115.483 21.3585 116.758 21.1684L118.307 8.00678C115.517 7.06598 112.447 7.47289 109.998 9.10836C107.549 10.7438 105.997 13.4228 105.797 16.361C107.375 17.5898 108.567 19.2456 109.231 21.1317L109.231 21.1317Z" fill="#40AA54"/>
<path d="M115.265 4.79114C116.486 4.79293 117.7 4.97911 118.866 5.34339C119.025 4.8713 119.216 4.41107 119.44 3.96617L118.741 1.87524L117.581 3.03672C117.169 3.44981 116.538 3.55255 116.015 3.29181L113.779 2.17375L114.836 4.81285C114.98 4.80743 115.12 4.79115 115.265 4.79115L115.265 4.79114Z" fill="#40AA54"/>
<path d="M89 2C89 1.44772 89.4477 1 90 1H100C100.552 1 101 1.44772 101 2V5C101 5.55228 100.552 6 100 6H90C89.4477 6 89 5.55228 89 5V2Z" fill="#40AA54"/>
<path d="M125.06 25.2255C125.411 25.1719 125.765 25.1447 126.12 25.1441C128.708 25.1501 131.139 26.3918 132.66 28.486L136.934 10.6812C137.628 7.76662 136.652 4.70716 134.398 2.73352C132.143 0.75987 128.982 0.196445 126.185 1.26987C123.387 2.3433 121.414 4.87715 121.059 7.85218L119.485 21.2295C121.846 21.6629 123.891 23.1283 125.06 25.2255V25.2255ZM124.986 7.52383L133.127 8.88069L132.682 11.5564L124.541 10.1996L124.986 7.52383ZM123.629 14.3081L131.77 15.665L131.325 18.3407L123.184 16.9839L123.629 14.3081Z" fill="#40AA54"/>
<path d="M132.904 34.642C132.155 34.642 131.548 34.0345 131.548 33.2851C131.548 30.2876 129.118 27.8577 126.12 27.8577C125.626 27.8664 125.135 27.9436 124.661 28.087C123.99 28.274 123.286 27.9221 123.033 27.2729C122.384 25.5635 120.915 24.2979 119.129 23.9091C117.342 23.5203 115.48 24.061 114.18 25.3461C113.652 25.8633 112.808 25.8633 112.28 25.3461C111.59 24.674 110.734 24.1985 109.798 23.9689C109.811 24.1819 109.838 24.3936 109.838 24.608V34.9364C110.34 35.1316 110.801 35.4208 111.195 35.7886C111.973 35.0542 113.002 34.6442 114.072 34.642C115.195 34.645 116.271 35.0907 117.067 35.8822L119.897 38.7126H138.139C137.522 36.3236 135.372 34.6513 132.904 34.642H132.904Z" fill="#40AA54"/>
<path d="M128.039 46.854H142.403C143.901 46.854 145.116 45.639 145.116 44.1402C145.116 42.6415 143.901 41.4265 142.403 41.4265H122.611L128.039 46.854Z" fill="#40AA54"/>
<path d="M116.061 46.854L111.195 41.9883L106.329 46.854H116.061Z" fill="#40AA54"/>
<path d="M140.865 49.5676H130.752L139.742 58.5569L140.865 49.5676Z" fill="#40AA54"/>
<path d="M85.4139 26.5008C85.4139 25.7514 86.0214 25.1439 86.7708 25.1439H103.053C103.803 25.1439 104.41 25.7514 104.41 26.5008V36.794L105.322 35.8822C105.826 35.3888 106.445 35.0292 107.124 34.836L107.124 24.608C107.127 22.0046 105.825 19.573 103.657 18.1317C100.736 16.1886 98.9814 12.9125 98.9826 9.40432V8.86157H90.8414V9.40432C90.8449 12.9149 89.0899 16.194 86.167 18.1384C84.001 19.5784 82.6996 22.007 82.7002 24.608L82.7002 38.7126H85.4139V26.5008Z" fill="#40AA54"/>
<path d="M91.6366 49.5676H81.5239L82.6474 58.5569L91.6366 49.5676Z" fill="#40AA54"/>
<path d="M128.834 72.6343C128.834 74.8825 127.011 76.7049 124.763 76.7049C122.515 76.7049 120.693 74.8825 120.693 72.6343V56.352C120.696 55.0771 121.299 53.8782 122.321 53.1158L118.774 49.5676H103.615L100.068 53.1158C101.09 53.8782 101.693 55.0771 101.696 56.3519V72.6343C101.696 74.8825 99.874 76.7049 97.6259 76.7049C95.3777 76.7049 93.5553 74.8825 93.5553 72.6343V59.6274L83.9785 69.2042L84.8103 75.8528C85.0648 77.8895 86.7958 79.4181 88.8483 79.4186H133.541C135.593 79.4181 137.324 77.8895 137.579 75.8528L138.41 69.2042L128.834 59.6274L128.834 72.6343ZM115.265 72.6343C115.265 74.8825 113.443 76.7049 111.194 76.7049C108.946 76.7049 107.124 74.8825 107.124 72.6343V56.352C107.124 54.1038 108.946 52.2814 111.194 52.2814C113.443 52.2814 115.265 54.1038 115.265 56.352V72.6343Z" fill="#40AA54"/>
<path d="M126.12 72.6343V56.9137L124.296 55.0901C123.764 55.2824 123.409 55.7863 123.406 56.352V72.6343C123.406 73.3837 124.014 73.9912 124.763 73.9912C125.512 73.9912 126.12 73.3837 126.12 72.6343Z" fill="#40AA54"/>
<path d="M115.148 37.801C114.713 37.3656 114.059 37.2353 113.49 37.4709C112.922 37.7064 112.551 38.2615 112.551 38.877C112.55 39.2807 112.71 39.6683 112.996 39.953L142.519 69.4756C142.954 69.911 143.609 70.0413 144.177 69.8057C144.746 69.5702 145.116 69.0151 145.116 68.3996C145.118 67.9959 144.957 67.6083 144.671 67.3236L115.148 37.801Z" fill="#40AA54"/>
<path d="M88.1279 27.8579H101.697V38.7128H88.1279V27.8579Z" fill="#40AA54"/>
<path d="M111.195 54.9951C110.445 54.9951 109.838 55.6026 109.838 56.352V72.6344C109.838 73.3837 110.445 73.9912 111.195 73.9912C111.944 73.9912 112.552 73.3837 112.552 72.6344V56.352C112.552 55.6026 111.944 54.9951 111.195 54.9951Z" fill="#40AA54"/>
<path d="M96.269 56.9137V72.6343C96.269 73.3837 96.8765 73.9912 97.6259 73.9912C98.3753 73.9912 98.9828 73.3837 98.9828 72.6343V56.352C98.9801 55.7863 98.6246 55.2824 98.0927 55.0901L96.269 56.9137Z" fill="#40AA54"/>
<path d="M109.838 38.877C109.838 38.2615 109.467 37.7064 108.899 37.4709C108.33 37.2353 107.676 37.3656 107.241 37.801L77.718 67.3236C77.2826 67.7587 77.1523 68.4132 77.3878 68.9818C77.6234 69.5504 78.1785 69.921 78.794 69.9207C79.1971 69.9191 79.5835 69.7593 79.87 69.4756L109.393 39.953C109.679 39.6683 109.839 39.2807 109.838 38.877V38.877Z" fill="#40AA54"/>
<path d="M79.9867 46.854H94.3504L99.7779 41.4265H79.9867C78.4879 41.4265 77.2729 42.6415 77.2729 44.1402C77.2729 45.639 78.4879 46.854 79.9867 46.854Z" fill="#40AA54"/>
</svg>
