<svg width="19" height="18" viewBox="0 0 19 18" fill="none" xmlns="http://www.w3.org/2000/svg">
<path d="M15.9358 18H3.92358C2.27271 18 0.929688 16.657 0.929688 15.0061V2.9939C0.929688 1.34302 2.27271 0 3.92358 0H15.9358C17.5867 0 18.9297 1.34302 18.9297 2.9939V15.0061C18.9297 16.657 17.5867 18 15.9358 18ZM3.92358 2C3.37573 2 2.92969 2.44604 2.92969 2.9939V15.0061C2.92969 15.554 3.37573 16 3.92358 16H15.9358C16.4836 16 16.9297 15.554 16.9297 15.0061V2.9939C16.9297 2.44604 16.4836 2 15.9358 2H3.92358Z" fill="#99A0B0"/>
</svg>
