<svg width="18" height="19" viewBox="0 0 18 19" fill="none" xmlns="http://www.w3.org/2000/svg">
<path d="M15.1533 18.9909C14.7402 18.9909 14.3022 18.8659 13.8762 18.6201L1.32715 11.3659C0.554199 10.9189 0.111328 10.239 0.111328 9.49998C0.111328 8.76292 0.555176 8.08299 1.32715 7.63597L13.8762 0.382063C14.6492 -0.0649583 15.4592 -0.110124 16.0991 0.259016C16.7383 0.627913 17.1052 1.35301 17.1052 2.24705V16.7549C17.1052 17.6489 16.7383 18.374 16.0981 18.7429C15.8123 18.9079 15.4902 18.9909 15.1533 18.9909ZM2.14624 9.50096C2.18115 9.53587 2.23926 9.58299 2.32812 9.63402L14.8772 16.8889C14.9653 16.9389 15.0332 16.966 15.0813 16.979C15.0933 16.9309 15.1052 16.8569 15.1052 16.7549V2.24705C15.1052 2.145 15.0933 2.07103 15.0813 2.02293C15.0342 2.03587 14.9653 2.06297 14.8772 2.11302L2.32812 9.3679C2.23926 9.41893 2.18213 9.46605 2.14624 9.50096Z" fill="#99A0B0"/>
</svg>
