<svg width="254" height="177" viewBox="0 0 254 177" fill="none" xmlns="http://www.w3.org/2000/svg">
<path d="M27.3494 131.52C26.7034 130.33 25.7684 129.429 24.5444 128.817C23.3544 128.171 21.9434 127.848 20.3114 127.848C17.4894 127.848 15.2284 128.783 13.5284 130.653C11.8284 132.489 10.9784 134.954 10.9784 138.048C10.9784 141.346 11.8624 143.93 13.6304 145.8C15.4324 147.636 17.8974 148.554 21.0254 148.554C23.1674 148.554 24.9694 148.01 26.4314 146.922C27.9274 145.834 29.0154 144.27 29.6954 142.23H18.6284V135.804H37.6004V143.913C36.9544 146.089 35.8494 148.112 34.2854 149.982C32.7554 151.852 30.8004 153.365 28.4204 154.521C26.0404 155.677 23.3544 156.255 20.3624 156.255C16.8264 156.255 13.6644 155.49 10.8764 153.96C8.12239 152.396 5.96339 150.237 4.39939 147.483C2.86939 144.729 2.10439 141.584 2.10439 138.048C2.10439 134.512 2.86939 131.367 4.39939 128.613C5.96339 125.825 8.12239 123.666 10.8764 122.136C13.6304 120.572 16.7754 119.79 20.3114 119.79C24.5954 119.79 28.1994 120.827 31.1234 122.901C34.0814 124.975 36.0364 127.848 36.9884 131.52H27.3494ZM51.152 132.285C52.172 130.721 53.447 129.497 54.977 128.613C56.507 127.695 58.207 127.236 60.077 127.236V136.467H57.68C55.504 136.467 53.872 136.943 52.784 137.895C51.696 138.813 51.152 140.445 51.152 142.791V156H42.431V127.542H51.152V132.285ZM77.1995 156.408C74.4115 156.408 71.8955 155.813 69.6515 154.623C67.4415 153.433 65.6905 151.733 64.3985 149.523C63.1405 147.313 62.5115 144.729 62.5115 141.771C62.5115 138.847 63.1575 136.28 64.4495 134.07C65.7415 131.826 67.5095 130.109 69.7535 128.919C71.9975 127.729 74.5135 127.134 77.3015 127.134C80.0895 127.134 82.6055 127.729 84.8495 128.919C87.0935 130.109 88.8615 131.826 90.1535 134.07C91.4455 136.28 92.0915 138.847 92.0915 141.771C92.0915 144.695 91.4285 147.279 90.1025 149.523C88.8105 151.733 87.0255 153.433 84.7475 154.623C82.5035 155.813 79.9875 156.408 77.1995 156.408ZM77.1995 148.86C78.8655 148.86 80.2765 148.248 81.4325 147.024C82.6225 145.8 83.2175 144.049 83.2175 141.771C83.2175 139.493 82.6395 137.742 81.4835 136.518C80.3615 135.294 78.9675 134.682 77.3015 134.682C75.6015 134.682 74.1905 135.294 73.0685 136.518C71.9465 137.708 71.3855 139.459 71.3855 141.771C71.3855 144.049 71.9295 145.8 73.0175 147.024C74.1395 148.248 75.5335 148.86 77.1995 148.86ZM108.295 156.408C105.813 156.408 103.603 155.983 101.665 155.133C99.7272 154.283 98.1972 153.127 97.0752 151.665C95.9532 150.169 95.3242 148.503 95.1882 146.667H103.807C103.909 147.653 104.368 148.452 105.184 149.064C106 149.676 107.003 149.982 108.193 149.982C109.281 149.982 110.114 149.778 110.692 149.37C111.304 148.928 111.61 148.367 111.61 147.687C111.61 146.871 111.185 146.276 110.335 145.902C109.485 145.494 108.108 145.052 106.204 144.576C104.164 144.1 102.464 143.607 101.104 143.097C99.7442 142.553 98.5712 141.72 97.5852 140.598C96.5992 139.442 96.1062 137.895 96.1062 135.957C96.1062 134.325 96.5482 132.846 97.4322 131.52C98.3502 130.16 99.6762 129.089 101.41 128.307C103.178 127.525 105.269 127.134 107.683 127.134C111.253 127.134 114.058 128.018 116.098 129.786C118.172 131.554 119.362 133.9 119.668 136.824H111.61C111.474 135.838 111.032 135.056 110.284 134.478C109.57 133.9 108.618 133.611 107.428 133.611C106.408 133.611 105.626 133.815 105.082 134.223C104.538 134.597 104.266 135.124 104.266 135.804C104.266 136.62 104.691 137.232 105.541 137.64C106.425 138.048 107.785 138.456 109.621 138.864C111.729 139.408 113.446 139.952 114.772 140.496C116.098 141.006 117.254 141.856 118.24 143.046C119.26 144.202 119.787 145.766 119.821 147.738C119.821 149.404 119.345 150.9 118.393 152.226C117.475 153.518 116.132 154.538 114.364 155.286C112.63 156.034 110.607 156.408 108.295 156.408ZM138.111 156.357C135.493 156.357 133.147 155.932 131.073 155.082C128.999 154.232 127.333 152.974 126.075 151.308C124.851 149.642 124.205 147.636 124.137 145.29H133.419C133.555 146.616 134.014 147.636 134.796 148.35C135.578 149.03 136.598 149.37 137.856 149.37C139.148 149.37 140.168 149.081 140.916 148.503C141.664 147.891 142.038 147.058 142.038 146.004C142.038 145.12 141.732 144.389 141.12 143.811C140.542 143.233 139.811 142.757 138.927 142.383C138.077 142.009 136.853 141.584 135.255 141.108C132.943 140.394 131.056 139.68 129.594 138.966C128.132 138.252 126.874 137.198 125.82 135.804C124.766 134.41 124.239 132.591 124.239 130.347C124.239 127.015 125.446 124.414 127.86 122.544C130.274 120.64 133.419 119.688 137.295 119.688C141.239 119.688 144.418 120.64 146.832 122.544C149.246 124.414 150.538 127.032 150.708 130.398H141.273C141.205 129.242 140.78 128.341 139.998 127.695C139.216 127.015 138.213 126.675 136.989 126.675C135.935 126.675 135.085 126.964 134.439 127.542C133.793 128.086 133.47 128.885 133.47 129.939C133.47 131.095 134.014 131.996 135.102 132.642C136.19 133.288 137.89 133.985 140.202 134.733C142.514 135.515 144.384 136.263 145.812 136.977C147.274 137.691 148.532 138.728 149.586 140.088C150.64 141.448 151.167 143.199 151.167 145.341C151.167 147.381 150.64 149.234 149.586 150.9C148.566 152.566 147.07 153.892 145.098 154.878C143.126 155.864 140.797 156.357 138.111 156.357ZM171.732 127.44C173.874 127.44 175.778 127.899 177.444 128.817C179.144 129.735 180.47 131.095 181.422 132.897C182.408 134.699 182.901 136.875 182.901 139.425V156H177.138V140.292C177.138 137.776 176.509 135.855 175.251 134.529C173.993 133.169 172.276 132.489 170.1 132.489C167.924 132.489 166.19 133.169 164.898 134.529C163.64 135.855 163.011 137.776 163.011 140.292V156H157.197V118.26H163.011V131.163C163.997 129.973 165.238 129.055 166.734 128.409C168.264 127.763 169.93 127.44 171.732 127.44ZM202.506 156.459C199.854 156.459 197.457 155.864 195.315 154.674C193.173 153.45 191.49 151.75 190.266 149.574C189.042 147.364 188.43 144.814 188.43 141.924C188.43 139.068 189.059 136.535 190.317 134.325C191.575 132.115 193.292 130.415 195.468 129.225C197.644 128.035 200.075 127.44 202.761 127.44C205.447 127.44 207.878 128.035 210.054 129.225C212.23 130.415 213.947 132.115 215.205 134.325C216.463 136.535 217.092 139.068 217.092 141.924C217.092 144.78 216.446 147.313 215.154 149.523C213.862 151.733 212.094 153.45 209.85 154.674C207.64 155.864 205.192 156.459 202.506 156.459ZM202.506 151.41C204.002 151.41 205.396 151.053 206.688 150.339C208.014 149.625 209.085 148.554 209.901 147.126C210.717 145.698 211.125 143.964 211.125 141.924C211.125 139.884 210.734 138.167 209.952 136.773C209.17 135.345 208.133 134.274 206.841 133.56C205.549 132.846 204.155 132.489 202.659 132.489C201.163 132.489 199.769 132.846 198.477 133.56C197.219 134.274 196.216 135.345 195.468 136.773C194.72 138.167 194.346 139.884 194.346 141.924C194.346 144.95 195.111 147.296 196.641 148.962C198.205 150.594 200.16 151.41 202.506 151.41ZM228.653 132.03C229.639 130.738 230.982 129.65 232.682 128.766C234.382 127.882 236.303 127.44 238.445 127.44C240.893 127.44 243.12 128.052 245.126 129.276C247.166 130.466 248.764 132.149 249.92 134.325C251.076 136.501 251.654 139 251.654 141.822C251.654 144.644 251.076 147.177 249.92 149.421C248.764 151.631 247.166 153.365 245.126 154.623C243.12 155.847 240.893 156.459 238.445 156.459C236.303 156.459 234.399 156.034 232.733 155.184C231.067 154.3 229.707 153.212 228.653 151.92V169.362H222.839V127.899H228.653V132.03ZM245.738 141.822C245.738 139.884 245.33 138.218 244.514 136.824C243.732 135.396 242.678 134.325 241.352 133.611C240.06 132.863 238.666 132.489 237.17 132.489C235.708 132.489 234.314 132.863 232.988 133.611C231.696 134.359 230.642 135.447 229.826 136.875C229.044 138.303 228.653 139.986 228.653 141.924C228.653 143.862 229.044 145.562 229.826 147.024C230.642 148.452 231.696 149.54 232.988 150.288C234.314 151.036 235.708 151.41 237.17 151.41C238.666 151.41 240.06 151.036 241.352 150.288C242.678 149.506 243.732 148.384 244.514 146.922C245.33 145.46 245.738 143.76 245.738 141.822Z" fill="#40AA54"/>
<path d="M124.683 23.3674C126.332 23.5091 127.914 24.0923 129.26 25.0559C130.455 24.1917 131.841 23.627 133.299 23.4093L135.073 8.34156C131.878 7.26451 128.365 7.73035 125.561 9.60269C122.757 11.475 120.98 14.542 120.751 17.9057C122.557 19.3125 123.922 21.2081 124.683 23.3674L124.683 23.3674Z" fill="#40AA54"/>
<path d="M131.591 4.66023C132.989 4.66228 134.379 4.87542 135.713 5.29246C135.895 4.752 136.114 4.22511 136.37 3.71578L135.57 1.32202L134.242 2.65171C133.77 3.12463 133.048 3.24226 132.45 2.94375L129.89 1.66377L131.1 4.68509C131.264 4.67888 131.424 4.66024 131.591 4.66024L131.591 4.66023Z" fill="#40AA54"/>
<path d="M100.607 1C100.607 0.447715 101.055 0 101.607 0H114.607C115.16 0 115.607 0.447715 115.607 1V5C115.607 5.55228 115.16 6 114.607 6H101.607C101.055 6 100.607 5.55228 100.607 5V1Z" fill="#40AA54"/>
<path d="M142.804 28.0541C143.206 27.9928 143.611 27.9617 144.017 27.9609C146.981 27.9678 149.763 29.3894 151.505 31.7869L156.398 11.4035C157.193 8.06671 156.075 4.56414 153.494 2.30465C150.913 0.0451624 147.294 -0.599864 144.091 0.62903C140.889 1.85793 138.63 4.75875 138.223 8.16466L136.421 23.4794C139.125 23.9756 141.466 25.6533 142.804 28.0541V28.0541ZM142.719 7.78875L152.039 9.34213L151.53 12.4054L142.209 10.852L142.719 7.78875ZM141.165 15.5556L150.486 17.109L149.976 20.1723L140.656 18.6189L141.165 15.5556Z" fill="#40AA54"/>
<path d="M151.785 38.8345C150.927 38.8345 150.231 38.139 150.231 37.2811C150.231 33.8495 147.449 31.0676 144.018 31.0676C143.452 31.0776 142.89 31.166 142.348 31.3301C141.579 31.5442 140.774 31.1413 140.484 30.3981C139.741 28.4411 138.059 26.9923 136.014 26.5472C133.969 26.1021 131.837 26.721 130.348 28.1923C129.744 28.7844 128.777 28.7844 128.173 28.1923C127.384 27.4228 126.403 26.8785 125.332 26.6156C125.346 26.8595 125.377 27.1018 125.377 27.3473V39.1716C125.952 39.395 126.479 39.7261 126.93 40.1471C127.822 39.3064 129 38.837 130.225 38.8345C131.51 38.838 132.742 39.3481 133.654 40.2543L136.894 43.4946H157.777C157.071 40.7596 154.609 38.8451 151.785 38.8345L151.785 38.8345Z" fill="#40AA54"/>
<path d="M146.214 52.8148H162.658C164.374 52.8148 165.765 51.4239 165.765 49.7081C165.765 47.9923 164.374 46.6013 162.658 46.6013H140L146.214 52.8148Z" fill="#40AA54"/>
<path d="M132.501 52.8148L126.93 47.2444L121.36 52.8148H132.501Z" fill="#40AA54"/>
<path d="M160.898 55.9216H149.321L159.612 66.2128L160.898 55.9216Z" fill="#40AA54"/>
<path d="M97.4163 29.5143C97.4163 28.6563 98.1118 27.9609 98.9697 27.9609H117.61C118.468 27.9609 119.164 28.6563 119.164 29.5143V41.2982L120.208 40.2543C120.785 39.6895 121.494 39.2779 122.27 39.0567L122.27 27.3473C122.274 24.3669 120.783 21.5831 118.302 19.933C114.958 17.7085 112.949 13.958 112.95 9.94167V9.32031H103.63V9.94166C103.634 13.9607 101.625 17.7147 98.2785 19.9408C95.7988 21.5893 94.3089 24.3696 94.3096 27.3473V43.4947H97.4163V29.5143Z" fill="#40AA54"/>
<path d="M104.54 55.9216H92.9624L94.2486 66.2128L104.54 55.9216Z" fill="#40AA54"/>
<path d="M147.124 82.3291C147.124 84.9028 145.038 86.9892 142.464 86.9892C139.89 86.9892 137.804 84.9028 137.804 82.3291V63.6885C137.807 62.229 138.498 60.8565 139.668 59.9837L135.607 55.9216H118.253L114.192 59.9837C115.362 60.8565 116.053 62.229 116.056 63.6885V82.3291C116.056 84.9028 113.97 86.9892 111.396 86.9892C108.823 86.9892 106.736 84.9028 106.736 82.3291V67.4384L95.7725 78.4021L96.7247 86.0137C97.0161 88.3454 98.9978 90.0953 101.348 90.096H152.513C154.863 90.0953 156.844 88.3454 157.136 86.0137L158.088 78.4021L147.124 67.4384L147.124 82.3291ZM131.59 82.3291C131.59 84.9028 129.504 86.9892 126.93 86.9892C124.356 86.9892 122.27 84.9028 122.27 82.3291V63.6885C122.27 61.1148 124.356 59.0284 126.93 59.0284C129.504 59.0284 131.59 61.1148 131.59 63.6885V82.3291Z" fill="#40AA54"/>
<path d="M144.017 82.3291V64.3316L141.93 62.2439C141.321 62.4641 140.914 63.041 140.911 63.6885V82.3291C140.911 83.187 141.606 83.8825 142.464 83.8825C143.322 83.8825 144.017 83.187 144.017 82.3291Z" fill="#40AA54"/>
<path d="M131.457 42.4508C130.959 41.9523 130.21 41.8031 129.559 42.0728C128.908 42.3426 128.483 42.978 128.484 43.6826C128.482 44.1449 128.666 44.5885 128.993 44.9144L162.792 78.7129C163.29 79.2113 164.039 79.3605 164.69 79.0908C165.341 78.8211 165.765 78.1857 165.765 77.4811C165.767 77.0188 165.583 76.5751 165.256 76.2492L131.457 42.4508Z" fill="#40AA54"/>
<path d="M100.523 31.0676H116.057V43.4947H100.523V31.0676Z" fill="#40AA54"/>
<path d="M126.93 62.1353C126.072 62.1353 125.377 62.8307 125.377 63.6886V82.3292C125.377 83.1871 126.072 83.8826 126.93 83.8826C127.788 83.8826 128.484 83.1871 128.484 82.3292V63.6886C128.484 62.8307 127.788 62.1353 126.93 62.1353Z" fill="#40AA54"/>
<path d="M109.843 64.3316V82.3291C109.843 83.187 110.539 83.8825 111.397 83.8825C112.255 83.8825 112.95 83.187 112.95 82.3291V63.6885C112.947 63.0409 112.54 62.4641 111.931 62.2439L109.843 64.3316Z" fill="#40AA54"/>
<path d="M125.377 43.6826C125.377 42.978 124.953 42.3425 124.302 42.0728C123.651 41.8031 122.902 41.9523 122.404 42.4508L88.6053 76.2492C88.1069 76.7473 87.9577 77.4966 88.2274 78.1476C88.4971 78.7986 89.1325 79.2228 89.8372 79.2224C90.2987 79.2207 90.7411 79.0377 91.069 78.7129L124.867 44.9144C125.195 44.5885 125.379 44.1449 125.377 43.6826L125.377 43.6826Z" fill="#40AA54"/>
<path d="M91.2025 52.8148H107.647L113.86 46.6013H91.2025C89.4866 46.6013 88.0957 47.9923 88.0957 49.7081C88.0957 51.4239 89.4866 52.8148 91.2025 52.8148Z" fill="#40AA54"/>
</svg>
