<svg width="18" height="20" viewBox="0 0 18 20" fill="none" xmlns="http://www.w3.org/2000/svg">
<path d="M10.006 20C9.82821 19.9781 9.66455 19.892 9.54587 19.7578C9.4272 19.6236 9.36169 19.4506 9.36169 19.2715C9.36169 19.0924 9.4272 18.9194 9.54587 18.7852C9.66455 18.651 9.82821 18.5649 10.006 18.543H12.854C15.309 18.543 16.546 17.28 16.546 14.791V5.21C16.546 2.72 15.309 1.457 12.854 1.457H5.138C2.682 1.457 1.438 2.72 1.438 5.21V14.791C1.438 17.28 2.683 18.543 5.138 18.543C5.31579 18.5649 5.47945 18.651 5.59812 18.7852C5.7168 18.9194 5.78231 19.0924 5.78231 19.2715C5.78231 19.4506 5.7168 19.6236 5.59812 19.7578C5.47945 19.892 5.31579 19.9781 5.138 20C1.924 20 0 18.049 0 14.791V5.21C0 1.942 1.924 0 5.138 0H12.854C16.067 0 17.991 1.951 18 5.21V14.791C18 18.049 16.084 20 12.862 20H10.006ZM5.39 14.958H5.382C5.18998 14.958 5.00583 14.8817 4.87005 14.7459C4.73428 14.6102 4.658 14.426 4.658 14.234C4.658 14.042 4.73428 13.8578 4.87005 13.7221C5.00583 13.5863 5.18998 13.51 5.382 13.51H12.592C12.784 13.51 12.9682 13.5863 13.1039 13.7221C13.2397 13.8578 13.316 14.042 13.316 14.234C13.316 14.426 13.2397 14.6102 13.1039 14.7459C12.9682 14.8817 12.784 14.958 12.592 14.958H5.39ZM12.59 10.729H5.382C5.20421 10.7071 5.04055 10.621 4.92188 10.4868C4.8032 10.3526 4.73769 10.1796 4.73769 10.0005C4.73769 9.82136 4.8032 9.64841 4.92188 9.51423C5.04055 9.38004 5.20421 9.29389 5.382 9.272H12.592C12.7275 9.25704 12.8645 9.28087 12.987 9.3407C13.1095 9.40054 13.2125 9.49392 13.284 9.61C13.3559 9.7272 13.3939 9.86201 13.3939 9.9995C13.3939 10.137 13.3559 10.2718 13.284 10.389C13.2195 10.4937 13.1293 10.5802 13.022 10.6404C12.9148 10.7006 12.794 10.7324 12.671 10.733C12.6446 10.7331 12.6182 10.7318 12.592 10.729H12.59ZM5.39 6.5C5.21221 6.47811 5.04855 6.39196 4.92987 6.25777C4.8112 6.12359 4.74569 5.95064 4.74569 5.7715C4.74569 5.59236 4.8112 5.41941 4.92987 5.28523C5.04855 5.15104 5.21221 5.06489 5.39 5.043H8.133C8.31079 5.06489 8.47445 5.15104 8.59313 5.28523C8.7118 5.41941 8.77731 5.59236 8.77731 5.7715C8.77731 5.95064 8.7118 6.12359 8.59313 6.25777C8.47445 6.39196 8.31079 6.47811 8.133 6.5H5.39Z" fill="#777777"/>
</svg>
