<svg width="18" height="18" viewBox="0 0 18 18" fill="none" xmlns="http://www.w3.org/2000/svg">
<path d="M1.05 18C0.883334 18 0.708333 17.996 0.525 17.988C0.341667 17.9793 0.166667 17.9667 0 17.95V12.1L5 11.1L7.9 14C9.16667 13.2333 10.3293 12.325 11.388 11.275C12.446 10.225 13.325 9.1 14.025 7.9L11.175 5.025L12.1 0H17.95C17.9833 0.166667 18 0.341667 18 0.525V1.05C18 3.2 17.5207 5.29567 16.562 7.337C15.604 9.379 14.3373 11.1917 12.762 12.775C11.1873 14.3583 9.37933 15.625 7.338 16.575C5.296 17.525 3.2 18 1.05 18Z" fill="white"/>
</svg>
