<svg width="16" height="21" viewBox="0 0 16 21" fill="none" xmlns="http://www.w3.org/2000/svg">
<path d="M7.59977 20.0005C7.41297 19.979 7.24059 19.8896 7.11544 19.7493C6.9903 19.609 6.92115 19.4275 6.92115 19.2395C6.92115 19.0515 6.9903 18.87 7.11544 18.7297C7.24059 18.5893 7.41297 18.4999 7.59977 18.4785C8.39477 18.4875 9.19977 18.4605 9.99977 18.3905C10.7113 18.3433 11.4182 18.243 12.1148 18.0905C13.3148 17.8255 14.0638 17.4475 14.2998 16.9465C14.3904 16.757 14.4374 16.5496 14.4374 16.3395C14.4374 16.1294 14.3904 15.922 14.2998 15.7325C14.0638 15.2225 13.3128 14.8265 12.1408 14.5885C11.4338 14.4285 10.7152 14.3252 9.99177 14.2795C8.63986 14.1571 7.27967 14.1571 5.92777 14.2795C5.21326 14.3262 4.50327 14.4265 3.80377 14.5795C2.60377 14.8435 1.86377 15.2225 1.61877 15.7235C1.53187 15.914 1.48718 16.1211 1.48777 16.3305C1.48721 16.5431 1.53186 16.7534 1.61877 16.9475C1.82413 17.2299 2.08536 17.467 2.38623 17.6442C2.68711 17.8214 3.02121 17.9348 3.36777 17.9775C3.50427 18.0049 3.63066 18.0692 3.73324 18.1633C3.83583 18.2574 3.91071 18.3778 3.94977 18.5115C3.98899 18.6455 3.99111 18.7876 3.95588 18.9226C3.92066 19.0577 3.84942 19.1807 3.74977 19.2785C3.65029 19.3756 3.52603 19.4434 3.39058 19.4746C3.25513 19.5059 3.1137 19.4992 2.98177 19.4555C2.42403 19.3635 1.89323 19.1503 1.42675 18.831C0.960269 18.5117 0.569438 18.0941 0.281769 17.6075C0.0955779 17.2126 -0.000976563 16.7815 -0.000976562 16.345C-0.000976563 15.9084 0.0955779 15.4773 0.281769 15.0825C0.744769 14.0875 1.82777 13.4465 3.49777 13.1025C4.28361 12.9315 5.08119 12.8199 5.88377 12.7685C7.32046 12.6452 8.76507 12.6452 10.2018 12.7685C10.9873 12.821 11.7674 12.9357 12.5348 13.1115C14.1958 13.4465 15.2798 14.1065 15.7348 15.0735C15.9138 15.4711 16.0042 15.9028 15.9998 16.3388C15.9953 16.7749 15.896 17.2047 15.7088 17.5985C15.2448 18.5665 14.1618 19.2265 12.4738 19.5695C11.7088 19.7422 10.9314 19.8542 10.1488 19.9045C9.39103 19.9822 8.6294 20.0156 7.86777 20.0045L7.59977 20.0005ZM7.99977 10.7175H7.98977C6.75518 10.7061 5.56231 10.2692 4.61246 9.48045C3.6626 8.69172 3.0139 7.59946 2.77584 6.38799C2.53778 5.17653 2.72492 3.92002 3.30569 2.83051C3.88645 1.74099 4.82529 0.885177 5.96377 0.407477C6.93692 0.00321534 8.00849 -0.101776 9.0416 0.105914C10.0747 0.313605 11.0224 0.824548 11.7638 1.57348C12.5105 2.32536 13.0179 3.28142 13.2222 4.3212C13.4265 5.36099 13.3185 6.43798 12.9118 7.41648C12.5136 8.39243 11.8337 9.22765 10.9588 9.81558C10.084 10.4035 9.05382 10.7175 7.99977 10.7175ZM5.29977 2.64948C4.85671 3.09642 4.52984 3.64505 4.34771 4.24746C4.16559 4.84986 4.13376 5.48769 4.255 6.10524C4.37624 6.72278 4.64686 7.30123 5.04322 7.79006C5.43958 8.2789 5.94962 8.66323 6.52877 8.90948C7.22495 9.20165 7.99255 9.27911 8.73307 9.13194C9.47358 8.98476 10.1532 8.61965 10.6848 8.08348C11.2206 7.54649 11.5854 6.86282 11.7332 6.11872C11.8809 5.37462 11.8049 4.60343 11.5148 3.90248C11.2301 3.20116 10.7426 2.60081 10.1145 2.17838C9.48651 1.75595 8.74665 1.5307 7.98977 1.53148H7.98377C7.48466 1.53088 6.99039 1.6294 6.52965 1.82132C6.06891 2.01324 5.65087 2.29473 5.29977 2.64948Z" fill="#777777"/>
</svg>
