<svg width="76" height="76" viewBox="0 0 76 76" fill="none" xmlns="http://www.w3.org/2000/svg">
<circle cx="38" cy="38" r="38" fill="#40AA54"/>
<path d="M23.8332 51.1666C22.8936 51.1666 22.0895 50.8323 21.421 50.1638C20.7513 49.4941 20.4165 48.6895 20.4165 47.7499V27.2499C20.4165 26.3103 20.7513 25.5063 21.421 24.8378C22.0895 24.1681 22.8936 23.8333 23.8332 23.8333H51.1665C52.1061 23.8333 52.9107 24.1681 53.5804 24.8378C54.2489 25.5063 54.5832 26.3103 54.5832 27.2499V34.0405H52.8748L51.1665 34.0833V30.6666L37.4998 39.2083L23.8332 30.6666V47.7499H44.3332V51.1666H23.8332ZM37.4998 35.7916L51.1665 27.2499H23.8332L37.4998 35.7916ZM49.4582 51.1666C48.9741 51.1666 48.5687 51.0026 48.2418 50.6746C47.9138 50.3477 47.7498 49.9423 47.7498 49.4583V44.3333C47.7498 43.8492 47.9138 43.4432 48.2418 43.1152C48.5687 42.7883 48.9741 42.6249 49.4582 42.6249V40.9166C49.4582 39.977 49.7924 39.1724 50.461 38.5027C51.1306 37.8342 51.9353 37.4999 52.8748 37.4999C53.8144 37.4999 54.619 37.8342 55.2887 38.5027C55.9572 39.1724 56.2915 39.977 56.2915 40.9166V42.6249C56.7755 42.6249 57.181 42.7883 57.5078 43.1152C57.8358 43.4432 57.9998 43.8492 57.9998 44.3333V49.4583C57.9998 49.9423 57.8358 50.3477 57.5078 50.6746C57.181 51.0026 56.7755 51.1666 56.2915 51.1666H49.4582ZM51.1665 42.6249H54.5832V40.9166C54.5832 40.4326 54.4192 40.0265 54.0912 39.6985C53.7643 39.3717 53.3589 39.2083 52.8748 39.2083C52.3908 39.2083 51.9854 39.3717 51.6585 39.6985C51.3305 40.0265 51.1665 40.4326 51.1665 40.9166V42.6249Z" fill="white"/>
</svg>
