<svg width="14" height="14" viewBox="0 0 14 14" fill="none" xmlns="http://www.w3.org/2000/svg">
<path d="M13.7056 12.5614L11.0727 9.9286C11.8707 8.88403 12.3083 7.61703 12.3085 6.28007C12.3085 4.6689 11.6809 3.15406 10.5415 2.01481C9.40224 0.87555 7.88759 0.248047 6.27623 0.248047C4.66505 0.248047 3.15021 0.87555 2.01096 2.01481C-0.340892 4.36685 -0.340892 8.19372 2.01096 10.5453C3.15021 11.6848 4.66506 12.3123 6.27623 12.3123C7.61319 12.3121 8.88018 11.8745 9.92475 11.0766L12.5576 13.7094C12.716 13.868 12.9239 13.9473 13.1316 13.9473C13.3393 13.9473 13.5472 13.868 13.7056 13.7094C14.0227 13.3925 14.0227 12.8784 13.7056 12.5614V12.5614ZM3.15893 9.39737C1.44014 7.67857 1.44034 4.88178 3.15893 3.16277C3.99158 2.33033 5.09872 1.87169 6.27623 1.87169C7.45394 1.87169 8.56089 2.33033 9.39353 3.16277C10.2262 3.99541 10.6848 5.10256 10.6848 6.28007C10.6848 7.45777 10.2262 8.56472 9.39353 9.39736C8.56089 10.23 7.45394 10.6886 6.27623 10.6886C5.09872 10.6886 3.99158 10.23 3.15893 9.39736V9.39737Z" fill="#777777"/>
</svg>
