<svg width="30" height="26" viewBox="0 0 30 26" fill="none" xmlns="http://www.w3.org/2000/svg">
<path d="M29.5547 8.56141C29.1585 8.06441 28.5642 7.7793 27.924 7.7793H22.1465L19.0136 0.605541C18.8193 0.160759 18.3012 -0.0425038 17.8564 0.151851C17.4116 0.346088 17.2084 0.864231 17.4027 1.30907L20.2284 7.77936H9.77192L12.5976 1.30907C12.7918 0.864231 12.5887 0.346145 12.1439 0.151855C11.6991 -0.0425038 11.181 0.160644 10.9867 0.605541L7.85381 7.77936H2.07627C1.43608 7.77936 0.841766 8.06442 0.445616 8.56146C0.0567318 9.04943 -0.0867633 9.67673 0.0519272 10.2827L3.13728 23.7592C3.35273 24.7002 4.18516 25.3574 5.16162 25.3574H24.8387C25.8151 25.3574 26.6476 24.7002 26.863 23.7592L29.9484 10.2826C30.0871 9.67667 29.9436 9.04937 29.5547 8.56141H29.5547ZM24.8387 23.5995H5.16162C5.01238 23.5995 4.88166 23.5017 4.85078 23.3668L1.76543 9.89042C1.74123 9.78466 1.78184 9.70509 1.82027 9.65699C1.8559 9.61222 1.93658 9.53716 2.07627 9.53716H7.08618L6.85596 10.0643C6.66173 10.5092 6.86481 11.0273 7.30965 11.2215C7.42414 11.2716 7.54344 11.2953 7.66092 11.2953C7.99971 11.2953 8.32256 11.0982 8.46681 10.7679L9.00429 9.53728H20.9961L21.5336 10.7679C21.6779 11.0983 22.0007 11.2953 22.3395 11.2953C22.4569 11.2953 22.5763 11.2716 22.6908 11.2215C23.1356 11.0273 23.3387 10.5092 23.1445 10.0643L22.9142 9.53716H27.9241C28.0638 9.53716 28.1445 9.61222 28.1801 9.65699C28.2185 9.70515 28.2592 9.78472 28.235 9.89036L25.1496 23.3668C25.1187 23.5017 24.9879 23.5995 24.8387 23.5995Z" fill="#2C3066"/>
<path d="M9.72681 13.3457C9.24142 13.3457 8.8479 13.7392 8.8479 14.2246V20.6699C8.8479 21.1553 9.24142 21.5488 9.72681 21.5488C10.2122 21.5488 10.6057 21.1553 10.6057 20.6699V14.2246C10.6057 13.7392 10.2122 13.3457 9.72681 13.3457Z" fill="#2C3066"/>
<path d="M15 13.3457C14.5146 13.3457 14.1211 13.7392 14.1211 14.2246V20.6699C14.1211 21.1553 14.5146 21.5488 15 21.5488C15.4854 21.5488 15.8789 21.1553 15.8789 20.6699V14.2246C15.8789 13.7392 15.4854 13.3457 15 13.3457Z" fill="#2C3066"/>
<path d="M20.2734 13.3457C19.788 13.3457 19.3945 13.7392 19.3945 14.2246V20.6699C19.3945 21.1553 19.788 21.5488 20.2734 21.5488C20.7588 21.5488 21.1523 21.1553 21.1523 20.6699V14.2246C21.1523 13.7392 20.7588 13.3457 20.2734 13.3457Z" fill="#2C3066"/>
</svg>
