<svg width="10" height="11" viewBox="0 0 10 11" fill="none" xmlns="http://www.w3.org/2000/svg">
<path d="M9.81649 4.48367C9.75207 4.28437 9.5753 4.14282 9.36617 4.12398L6.52546 3.86604L5.40217 1.23685C5.31934 1.04416 5.13071 0.919434 4.92113 0.919434C4.71155 0.919434 4.52292 1.04416 4.44009 1.2373L3.3168 3.86603L0.475628 4.12397C0.266873 4.14327 0.0905574 4.28436 0.0257552 4.48366C-0.0390488 4.68295 0.0207991 4.90154 0.178717 5.03933L2.32596 6.92248L1.69278 9.71161C1.64645 9.91669 1.72605 10.1287 1.89621 10.2517C1.98767 10.3178 2.09467 10.3514 2.20258 10.3514C2.29562 10.3514 2.38791 10.3263 2.47073 10.2768L4.92113 8.81224L7.37062 10.2768C7.54986 10.3846 7.77581 10.3747 7.9456 10.2517C8.11583 10.1283 8.19535 9.91624 8.14902 9.71161L7.51585 6.92248L9.66309 5.03971C9.821 4.90154 9.8813 4.68332 9.8165 4.48366L9.81649 4.48367Z" fill="#FFC107"/>
</svg>
