<svg width="160" height="110" viewBox="0 0 160 110" fill="none" xmlns="http://www.w3.org/2000/svg">
<path d="M13.1182 74.28C6.39818 74.28 1.69418 79.016 1.69418 85.736C1.69418 92.456 6.43018 97.16 13.1502 97.16C19.0702 97.16 22.8142 93.288 23.9662 89.416V84.328H12.0622V88.36H19.0062C18.1742 90.888 16.2862 92.328 13.5662 92.328C9.63018 92.328 7.26218 89.896 7.26218 85.736C7.26218 81.832 9.59818 79.336 13.1182 79.336C15.1662 79.336 16.7022 80.136 17.5342 81.64H23.5822C22.3982 77.032 18.4942 74.28 13.1182 74.28ZM32.4692 88.712C32.4692 85.64 33.9732 84.744 36.5652 84.744H38.0692V78.952C35.6692 78.952 33.7172 80.232 32.4692 82.12V79.144H26.9972V97H32.4692V88.712ZM58.1567 88.072C58.1567 82.408 54.1247 78.888 48.8767 78.888C43.6607 78.888 39.5967 82.408 39.5967 88.072C39.5967 93.736 43.5647 97.256 48.8127 97.256C54.0607 97.256 58.1567 93.736 58.1567 88.072ZM45.1647 88.072C45.1647 85.032 46.8927 83.624 48.8767 83.624C50.7967 83.624 52.5887 85.032 52.5887 88.072C52.5887 91.08 50.7647 92.52 48.8127 92.52C46.8287 92.52 45.1647 91.08 45.1647 88.072ZM75.5557 91.816C75.4597 85.16 65.7957 87.176 65.7957 84.328C65.7957 83.464 66.4997 82.952 67.7797 82.952C69.3157 82.952 70.2437 83.752 70.4037 84.968H75.4597C75.1077 81.448 72.5477 78.888 67.9397 78.888C63.2677 78.888 60.6757 81.384 60.6757 84.424C60.6757 90.984 70.4037 88.904 70.4037 91.784C70.4037 92.584 69.6677 93.224 68.2597 93.224C66.7557 93.224 65.6357 92.392 65.5077 91.144H60.0997C60.3557 94.6 63.5557 97.256 68.3237 97.256C72.8037 97.256 75.5557 94.92 75.5557 91.816ZM95.2234 90.312C95.2234 82.792 84.1194 84.552 84.1194 80.648C84.1194 79.24 85.1114 78.568 86.4234 78.6C87.8954 78.632 88.9194 79.496 89.0154 80.936H94.9354C94.7114 76.648 91.4154 74.216 86.5194 74.216C81.8154 74.216 78.3274 76.584 78.3274 80.84C78.2634 88.808 89.4954 86.568 89.4954 90.728C89.4954 92.04 88.4714 92.84 86.8714 92.84C85.3354 92.84 84.2474 92.008 84.0874 90.28H78.2634C78.4234 94.824 82.1994 97.224 87.0314 97.224C92.2794 97.224 95.2234 94.088 95.2234 90.312ZM108.127 79.08C109.471 79.08 110.666 79.368 111.711 79.944C112.778 80.52 113.61 81.3733 114.207 82.504C114.826 83.6347 115.135 85 115.135 86.6V97H111.519V87.144C111.519 85.5653 111.124 84.36 110.335 83.528C109.546 82.6747 108.468 82.248 107.103 82.248C105.738 82.248 104.65 82.6747 103.839 83.528C103.05 84.36 102.655 85.5653 102.655 87.144V97H99.0069V73.32H102.655V81.416C103.274 80.6693 104.052 80.0933 104.991 79.688C105.951 79.2827 106.996 79.08 108.127 79.08ZM127.436 97.288C125.772 97.288 124.268 96.9147 122.924 96.168C121.58 95.4 120.524 94.3333 119.756 92.968C118.988 91.5813 118.604 89.9813 118.604 88.168C118.604 86.376 118.999 84.7867 119.788 83.4C120.578 82.0133 121.655 80.9467 123.02 80.2C124.386 79.4533 125.911 79.08 127.596 79.08C129.282 79.08 130.807 79.4533 132.172 80.2C133.538 80.9467 134.615 82.0133 135.404 83.4C136.194 84.7867 136.588 86.376 136.588 88.168C136.588 89.96 136.183 91.5493 135.372 92.936C134.562 94.3227 133.452 95.4 132.044 96.168C130.658 96.9147 129.122 97.288 127.436 97.288ZM127.436 94.12C128.375 94.12 129.25 93.896 130.06 93.448C130.892 93 131.564 92.328 132.076 91.432C132.588 90.536 132.844 89.448 132.844 88.168C132.844 86.888 132.599 85.8107 132.108 84.936C131.618 84.04 130.967 83.368 130.156 82.92C129.346 82.472 128.471 82.248 127.532 82.248C126.594 82.248 125.719 82.472 124.908 82.92C124.119 83.368 123.49 84.04 123.02 84.936C122.551 85.8107 122.316 86.888 122.316 88.168C122.316 90.0667 122.796 91.5387 123.756 92.584C124.738 93.608 125.964 94.12 127.436 94.12ZM143.842 81.96C144.461 81.1493 145.304 80.4667 146.37 79.912C147.437 79.3573 148.642 79.08 149.986 79.08C151.522 79.08 152.92 79.464 154.178 80.232C155.458 80.9787 156.461 82.0347 157.186 83.4C157.912 84.7653 158.274 86.3333 158.274 88.104C158.274 89.8747 157.912 91.464 157.186 92.872C156.461 94.2587 155.458 95.3467 154.178 96.136C152.92 96.904 151.522 97.288 149.986 97.288C148.642 97.288 147.448 97.0213 146.402 96.488C145.357 95.9333 144.504 95.2507 143.842 94.44V105.384H140.194V79.368H143.842V81.96ZM154.562 88.104C154.562 86.888 154.306 85.8427 153.794 84.968C153.304 84.072 152.642 83.4 151.81 82.952C151 82.4827 150.125 82.248 149.186 82.248C148.269 82.248 147.394 82.4827 146.562 82.952C145.752 83.4213 145.09 84.104 144.578 85C144.088 85.896 143.842 86.952 143.842 88.168C143.842 89.384 144.088 90.4507 144.578 91.368C145.09 92.264 145.752 92.9467 146.562 93.416C147.394 93.8853 148.269 94.12 149.186 94.12C150.125 94.12 151 93.8853 151.81 93.416C152.642 92.9253 153.304 92.2213 153.794 91.304C154.306 90.3867 154.562 89.32 154.562 88.104Z" fill="white"/>
<path d="M78.7416 14.5242C79.7671 14.6122 80.7499 14.9748 81.587 15.5737C82.3297 15.0365 83.1907 14.6855 84.0973 14.5503L85.1999 5.18475C83.2141 4.5153 81.0302 4.80485 79.2874 5.96862C77.5447 7.13239 76.4404 9.03872 76.2979 11.1294C77.4205 12.0038 78.2687 13.1821 78.7416 14.5242L78.7416 14.5242Z" fill="white"/>
<path d="M83.0353 2.89667C83.9043 2.89794 84.7682 3.03043 85.5977 3.28964C85.7105 2.95371 85.847 2.62622 86.0062 2.30964L85.5089 0.821777L84.6834 1.64826C84.3897 1.9422 83.941 2.01532 83.5692 1.82978L81.978 1.03419L82.7302 2.91212C82.8325 2.90826 82.932 2.89667 83.0353 2.89667L83.0353 2.89667Z" fill="white"/>
<path d="M64 1C64 0.447715 64.4477 0 65 0H72C72.5523 0 73 0.447715 73 1V3C73 3.55228 72.5523 4 72 4H65C64.4477 4 64 3.55228 64 3V1Z" fill="white"/>
<path d="M90.0052 17.4372C90.2547 17.3991 90.5068 17.3797 90.7592 17.3792C92.6012 17.3835 94.3304 18.2671 95.413 19.7573L98.4544 7.08779C98.9484 5.0138 98.2537 2.83675 96.6496 1.43235C95.0455 0.02794 92.7957 -0.372982 90.8052 0.390848C88.8147 1.15468 87.4107 2.95771 87.1578 5.07469L86.0378 14.5937C87.7183 14.9021 89.1732 15.9449 90.0052 17.4372V17.4372ZM89.952 4.84104L95.7452 5.80655L95.4285 7.71055L89.6354 6.74503L89.952 4.84104ZM88.9865 9.66862L94.7796 10.6341L94.4629 12.5381L88.6698 11.5726L88.9865 9.66862Z" fill="white"/>
<path d="M95.5868 24.1379C95.0536 24.1379 94.6213 23.7057 94.6213 23.1724C94.6213 21.0395 92.8922 19.3104 90.7592 19.3104C90.4074 19.3166 90.0581 19.3715 89.7213 19.4735C89.2436 19.6066 88.7428 19.3562 88.5627 18.8942C88.101 17.6778 87.0557 16.7773 85.7844 16.5006C84.5131 16.224 83.1881 16.6087 82.2627 17.5232C81.8872 17.8912 81.2864 17.8912 80.911 17.5232C80.4202 17.0449 79.8105 16.7066 79.145 16.5432C79.1537 16.6948 79.173 16.8454 79.173 16.9979V24.3475C79.5305 24.4863 79.8582 24.6921 80.1385 24.9538C80.6925 24.4312 81.4248 24.1395 82.1864 24.1379C82.9852 24.1401 83.7509 24.4572 84.3173 25.0204L86.3314 27.0345H99.3118C98.8729 25.3345 97.3425 24.1445 95.5868 24.1379L95.5868 24.1379Z" fill="white"/>
<path d="M92.1245 32.8276H102.345C103.412 32.8276 104.277 31.9631 104.277 30.8966C104.277 29.8301 103.412 28.9656 102.345 28.9656H88.2625L92.1245 32.8276Z" fill="white"/>
<path d="M83.601 32.8276L80.1386 29.3652L76.6763 32.8276H83.601Z" fill="white"/>
<path d="M101.252 34.7585H94.0557L100.452 41.1551L101.252 34.7585Z" fill="white"/>
<path d="M61.7938 18.3449C61.7938 17.8117 62.2261 17.3794 62.7593 17.3794H74.3456C74.8788 17.3794 75.3111 17.8117 75.3111 18.3449V25.6693L75.9599 25.0205C76.3186 24.6695 76.7594 24.4136 77.2421 24.2761L77.2421 16.998C77.2441 15.1455 76.3179 13.4152 74.7752 12.3896C72.6967 11.007 71.4481 8.6758 71.449 6.17942L71.449 5.79321H65.6559V6.17942C65.6584 8.67751 64.4096 11.0108 62.3297 12.3945C60.7884 13.4191 59.8624 15.1472 59.8628 16.998L59.8628 27.0346H61.7938V18.3449Z" fill="white"/>
<path d="M66.2216 34.7585H59.0256L59.8251 41.1551L66.2216 34.7585Z" fill="white"/>
<path d="M92.6903 51.1723C92.6903 52.7721 91.3935 54.0689 89.7937 54.0689C88.194 54.0689 86.8972 52.7721 86.8972 51.1723V39.5861C86.8995 38.679 87.3287 37.8258 88.0558 37.2834L85.5319 34.7585H74.7452L72.2213 37.2834C72.9484 37.8258 73.3777 38.679 73.3799 39.5861V51.1723C73.3799 52.7721 72.0831 54.0689 70.4834 54.0689C68.8837 54.0689 67.5868 52.7721 67.5868 51.1723V41.9169L60.7722 48.7315L61.3641 53.4625C61.5452 54.9118 62.7769 55.9995 64.2375 55.9999H96.0397C97.5002 55.9995 98.7319 54.9118 98.913 53.4625L99.5049 48.7315L92.6903 41.9169L92.6903 51.1723ZM83.0351 51.1723C83.0351 52.7721 81.7383 54.0689 80.1386 54.0689C78.5388 54.0689 77.242 52.7721 77.242 51.1723V39.5861C77.242 37.9864 78.5388 36.6896 80.1386 36.6896C81.7383 36.6896 83.0351 37.9864 83.0351 39.5861V51.1723Z" fill="white"/>
<path d="M90.7594 51.1724V39.9859L89.4618 38.6882C89.0832 38.8251 88.8303 39.1836 88.8284 39.5862V51.1724C88.8284 51.7056 89.2606 52.1379 89.7939 52.1379C90.3271 52.1379 90.7594 51.7056 90.7594 51.1724Z" fill="white"/>
<path d="M82.952 26.3857C82.6425 26.0759 82.1767 25.9832 81.7721 26.1508C81.3675 26.3185 81.1037 26.7134 81.104 27.1514C81.1029 27.4387 81.2169 27.7145 81.4207 27.917L102.428 48.9248C102.738 49.2346 103.204 49.3273 103.608 49.1597C104.013 48.992 104.277 48.5971 104.276 48.1591C104.278 47.8718 104.163 47.596 103.96 47.3935L82.952 26.3857Z" fill="white"/>
<path d="M63.7249 19.3103H73.38V27.0344H63.7249V19.3103Z" fill="white"/>
<path d="M80.1386 38.6206C79.6054 38.6206 79.1731 39.0529 79.1731 39.5861V51.1723C79.1731 51.7056 79.6054 52.1378 80.1386 52.1378C80.6719 52.1378 81.1041 51.7056 81.1041 51.1723V39.5861C81.1041 39.0529 80.6719 38.6206 80.1386 38.6206Z" fill="white"/>
<path d="M69.5178 39.9859V51.1724C69.5178 51.7056 69.9501 52.1379 70.4833 52.1379C71.0166 52.1379 71.4489 51.7056 71.4489 51.1724V39.5862C71.4469 39.1836 71.194 38.8251 70.8155 38.6882L69.5178 39.9859Z" fill="white"/>
<path d="M79.1731 27.1514C79.1734 26.7134 78.9096 26.3185 78.505 26.1508C78.1004 25.9832 77.6347 26.0759 77.3251 26.3857L56.3174 47.3934C56.0075 47.703 55.9148 48.1688 56.0825 48.5734C56.2501 48.978 56.6451 49.2417 57.083 49.2414C57.3699 49.2404 57.6449 49.1266 57.8487 48.9248L78.8564 27.917C79.0602 27.7145 79.1742 27.4387 79.1731 27.1514L79.1731 27.1514Z" fill="white"/>
<path d="M57.9318 32.8276H68.1527L72.0148 28.9656H57.9318C56.8653 28.9656 56.0007 29.8301 56.0007 30.8966C56.0007 31.9631 56.8653 32.8276 57.9318 32.8276Z" fill="white"/>
</svg>
